<svg width="842" height="625" viewBox="0 0 842 625" fill="none" xmlns="http://www.w3.org/2000/svg">
<path opacity="0.0144928" d="M187.361 530.288C177.386 532.561 167.128 528.041 162.16 519.182L98.4361 405.555C95.4728 400.271 94.7401 394.025 96.3983 388.182L150.639 197.055C151.947 192.446 154.67 188.351 158.426 185.344L291.932 78.4672C298.682 73.063 307.887 71.8508 315.776 75.3274L417.812 120.295C425.701 123.771 430.949 131.353 431.409 139.935L440.501 309.654C440.757 314.429 439.503 319.172 436.918 323.218L329.718 491.006C326.441 496.135 321.261 499.776 315.312 501.131L187.361 530.288Z" stroke="url(#paint0_linear_58327_796)" stroke-width="4"/>
<path opacity="0.0289855" d="M209.651 535.098C199.838 537.859 189.401 533.893 183.975 525.342L114.692 416.134C111.44 411.008 110.369 404.796 111.717 398.862L155.251 207.075C156.316 202.385 158.831 198.138 162.441 194.933L289.08 82.5118C295.534 76.7818 304.645 75.1024 312.691 78.1595L416.296 117.525C424.342 120.582 429.977 127.865 430.9 136.398L449.013 303.818C449.529 308.591 448.528 313.413 446.148 317.604L348.851 488.963C345.84 494.265 340.847 498.173 334.964 499.828L209.651 535.098Z" stroke="url(#paint1_linear_58327_796)" stroke-width="4"/>
<path opacity="0.0434783" d="M231.928 539.205C222.302 542.445 211.712 539.04 205.848 530.818L131.3 426.292C127.767 421.339 126.362 415.179 127.393 409.171L160.301 217.303C161.117 212.545 163.415 208.157 166.869 204.761L286.422 87.2103C292.565 81.1708 301.558 79.0308 309.738 81.6618L414.6 115.387C422.781 118.018 428.785 124.981 430.168 133.441L457.085 298.098C457.862 302.855 457.115 307.742 454.95 312.066L367.638 486.437C364.904 491.898 360.109 496.063 354.309 498.015L231.928 539.205Z" stroke="url(#paint2_linear_58327_796)" stroke-width="4"/>
<path opacity="0.057971" d="M254.154 542.619C244.737 546.325 234.025 543.484 227.742 535.614L148.233 436.015C144.429 431.249 142.69 425.161 143.4 419.094L165.796 227.715C166.359 222.902 168.432 218.383 171.719 214.804L283.995 92.5464C289.811 86.2139 298.662 83.6207 306.955 85.8202L412.761 113.882C421.054 116.082 427.41 122.708 429.248 131.071L464.724 292.516C465.763 297.242 465.275 302.182 463.332 306.629L386.053 483.452C383.604 489.057 379.022 493.469 373.32 495.713L254.154 542.619Z" stroke="url(#paint3_linear_58327_796)" stroke-width="4"/>
<path opacity="0.0724638" d="M276.288 545.347C267.103 549.508 256.298 547.234 249.617 539.736L165.465 445.289C161.4 440.726 159.331 434.726 159.717 428.619L171.742 238.285C172.048 233.431 173.889 228.793 176.999 225.038L281.829 98.5006C287.304 91.8927 295.992 88.8556 304.375 90.6193L410.813 113.013C419.196 114.777 425.885 121.049 428.17 129.29L471.942 287.092C473.24 291.774 473.016 296.753 471.302 301.311L404.075 480.031C401.918 485.765 397.563 490.413 391.974 492.945L276.288 545.347Z" stroke="url(#paint4_linear_58327_796)" stroke-width="4"/>
<path opacity="0.0869565" d="M298.295 547.402C289.364 552.002 278.495 550.299 271.437 543.191L182.969 454.102C178.654 449.757 176.26 443.863 176.319 437.733L178.146 248.986C178.193 244.105 179.795 239.361 182.719 235.44L279.961 105.054C285.081 98.1886 293.583 94.7167 302.033 96.0414L408.795 112.779C417.245 114.103 424.247 120.006 426.973 128.101L478.75 281.85C480.307 286.473 480.348 291.475 478.869 296.132L421.681 476.199C419.824 482.048 415.708 486.92 410.247 489.733L298.295 547.402Z" stroke="url(#paint5_linear_58327_796)" stroke-width="4"/>
<path opacity="0.101449" d="M320.139 548.795C311.482 553.822 300.58 552.688 293.168 545.989L200.718 462.444C196.164 458.33 193.451 452.561 193.183 446.425L185.012 259.795C184.798 254.901 186.154 250.062 188.882 245.985L278.419 112.183C283.172 105.08 291.467 101.186 299.961 102.069L406.739 113.178C415.233 114.061 422.529 119.578 425.686 127.504L485.162 276.808C486.974 281.357 487.284 286.37 486.046 291.113L438.853 471.984C437.301 477.93 433.436 483.014 428.117 486.102L320.139 548.795Z" stroke="url(#paint6_linear_58327_796)" stroke-width="4"/>
<path opacity="0.115942" d="M341.784 549.544C333.421 554.98 322.514 554.414 314.771 548.143L218.683 470.308C213.904 466.437 210.878 460.81 210.281 454.687L192.344 270.684C191.867 265.79 192.971 260.871 195.495 256.647L277.233 119.867C281.609 112.545 289.676 108.239 298.191 108.681L404.682 114.205C413.197 114.647 420.764 119.763 424.343 127.498L491.19 271.986C493.254 276.448 493.833 281.454 492.842 286.272L455.571 467.411C454.331 473.44 450.727 478.722 445.565 482.078L341.784 549.544Z" stroke="url(#paint7_linear_58327_796)" stroke-width="4"/>
<path opacity="0.130435" d="M363.197 549.664C355.148 555.494 344.263 555.494 336.214 549.664L236.839 477.687C231.847 474.071 228.516 468.603 227.591 462.51L200.141 281.628C199.4 276.75 200.248 271.762 202.56 267.402L276.433 128.08C280.421 120.558 288.239 115.855 296.753 115.855H402.658C411.172 115.855 418.99 120.558 422.979 128.08L496.851 267.402C499.162 271.762 500.011 276.749 499.271 281.628L471.82 462.51C470.896 468.603 467.564 474.071 462.572 477.687L363.197 549.664Z" stroke="url(#paint8_linear_58327_796)" stroke-width="4"/>
<path opacity="0.144928" d="M384.344 549.174C376.625 555.381 365.793 555.943 357.462 550.569L255.155 484.573C249.965 481.225 246.336 475.933 245.085 469.887L208.403 292.601C207.4 287.752 207.987 282.71 210.079 278.225L276.041 136.797C279.633 129.096 287.183 124.007 295.673 123.567L400.701 118.118C409.191 117.678 417.237 121.956 421.623 129.244L421.623 129.245L502.159 263.073C504.713 267.317 505.829 272.271 505.344 277.197L487.585 457.308C486.979 463.45 483.93 469.088 479.122 472.955L384.344 549.174Z" stroke="url(#paint9_linear_58327_796)" stroke-width="4"/>
<path opacity="0.15942" d="M405.193 548.095C397.823 554.661 387.072 555.779 378.484 550.874L273.604 490.966C268.23 487.896 264.314 482.796 262.739 476.816L217.129 303.576C215.865 298.772 216.189 293.69 218.053 289.092L276.087 145.988C279.274 138.128 286.537 132.671 294.98 131.792L398.845 120.987C407.288 120.108 415.538 123.952 420.307 130.984L507.131 259.017C509.921 263.132 511.305 268.036 511.077 272.996L502.853 451.836C502.569 458.009 499.809 463.804 495.198 467.912L405.193 548.095Z" stroke="url(#paint10_linear_58327_796)" stroke-width="4"/>
<path opacity="0.173913" d="M425.716 546.449C418.71 553.355 408.067 555.023 399.249 550.599L292.158 496.861C286.616 494.08 282.424 489.187 280.529 483.289L226.316 314.532C224.792 309.786 224.85 304.678 226.481 299.977L276.589 155.626C279.365 147.629 286.324 141.819 294.699 140.506L397.12 124.449C405.495 123.136 413.927 126.533 419.063 133.29L511.784 255.249C514.803 259.221 516.453 264.061 516.485 269.042L517.611 446.121C517.65 452.31 515.191 458.246 510.788 462.586L425.716 546.449Z" stroke="url(#paint11_linear_58327_796)" stroke-width="4"/>
<path opacity="0.188406" d="M445.881 544.26C439.255 551.486 428.749 553.697 419.727 549.763L310.791 502.259C305.096 499.776 300.637 495.105 298.427 489.308L235.96 325.441C234.179 320.767 233.968 315.647 235.361 310.855L277.572 165.684C279.931 157.57 286.568 151.421 294.851 149.679L395.559 128.49C403.842 126.748 412.431 129.692 417.921 136.154L516.136 251.782C519.378 255.598 521.289 260.361 521.582 265.348L531.852 440.196C532.215 446.383 530.061 452.444 525.879 457.006L445.881 544.26Z" stroke="url(#paint12_linear_58327_796)" stroke-width="4"/>
<path opacity="0.202899" d="M465.664 541.552C459.433 549.079 449.089 551.822 439.89 548.388L329.473 507.16C323.641 504.982 318.929 500.549 316.409 494.869L246.054 336.279C244.019 331.692 243.54 326.573 244.689 321.703L279.052 176.127C280.99 167.918 287.29 161.45 295.46 159.283L394.192 133.097C402.362 130.93 411.085 133.414 416.91 139.564L520.206 248.63C523.661 252.279 525.832 256.949 526.386 261.928L545.566 434.091C546.253 440.258 544.413 446.428 540.462 451.2L465.664 541.552Z" stroke="url(#paint13_linear_58327_796)" stroke-width="4"/>
<path opacity="0.217391" d="M485.039 538.352C479.215 546.159 469.06 549.424 459.713 546.497L348.178 511.566C342.226 509.702 337.274 505.52 334.451 499.973L256.592 347.022C254.308 342.535 253.559 337.433 254.46 332.498L281.049 186.926C282.561 178.644 288.509 171.875 296.544 169.29L393.049 138.253C401.084 135.669 409.916 137.686 416.057 143.506L524.012 245.806C527.672 249.275 530.097 253.838 530.914 258.796L558.751 427.835C559.76 433.966 558.238 440.23 554.53 445.2L485.039 538.352Z" stroke="url(#paint14_linear_58327_796)" stroke-width="4"/>
<path opacity="0.231884" d="M503.98 534.687C498.576 542.752 488.637 546.528 479.169 544.114L366.877 515.482C360.824 513.938 355.645 510.02 352.525 504.623L267.563 357.647C265.036 353.274 264.018 348.203 264.668 343.214L283.577 198.05C284.662 189.716 290.243 182.663 298.122 179.67L392.157 143.94C400.036 140.946 408.951 142.491 415.391 147.965L527.575 243.32C531.43 246.597 534.102 251.04 535.18 255.964L571.398 421.46C572.728 427.537 571.528 433.879 568.073 439.036L503.98 534.687Z" stroke="url(#paint15_linear_58327_796)" stroke-width="4"/>
<path opacity="0.246377" d="M522.468 530.585C517.494 538.887 507.796 543.161 498.235 541.265L385.548 518.912C379.409 517.694 374.018 514.052 370.61 508.821L278.961 368.132C276.195 363.886 274.911 358.859 275.306 353.83L286.649 209.464C287.306 201.1 292.507 193.784 300.209 190.39L391.543 150.138C399.245 146.744 408.218 147.814 414.937 152.927L530.915 241.183C534.955 244.258 537.869 248.567 539.206 253.442L583.508 414.997C585.156 421.004 584.282 427.407 581.089 432.737L522.468 530.585Z" stroke="url(#paint16_linear_58327_796)" stroke-width="4"/>
<path opacity="0.26087" d="M540.483 526.079C535.95 534.595 526.517 539.352 516.892 537.976L404.161 521.862C397.955 520.975 392.366 517.622 388.679 512.571L290.773 378.453C287.776 374.347 286.226 369.379 286.364 364.322L290.277 221.136C290.506 212.764 295.314 205.204 302.819 201.42L391.233 156.829C398.737 153.044 407.743 153.637 414.72 158.374L534.05 239.404C538.264 242.265 541.414 246.427 543.008 251.24L595.079 408.475C597.04 414.396 596.497 420.842 593.574 426.333L540.483 526.079Z" stroke="url(#paint17_linear_58327_796)" stroke-width="4"/>
<path opacity="0.275362" d="M558.004 521.195C553.92 529.903 544.779 535.128 535.118 534.274L422.692 524.342C416.437 523.789 410.667 520.734 406.711 515.879L302.988 388.59C299.767 384.638 297.954 379.741 297.833 374.67L294.47 233.033C294.272 224.674 298.677 216.891 305.964 212.726L391.25 163.987C398.537 159.823 407.549 159.938 414.764 164.288L537.004 237.989C541.381 240.628 544.759 244.631 546.606 249.368L606.113 401.926C608.383 407.744 608.171 414.218 605.527 419.856L558.004 521.195Z" stroke="url(#paint18_linear_58327_796)" stroke-width="4"/>
<path opacity="0.289855" d="M575.017 515.968C571.391 524.844 562.562 530.519 552.895 530.188L441.117 526.36C434.831 526.144 428.896 523.397 424.682 518.753L315.592 398.523C312.155 394.735 310.083 389.925 309.703 384.852L299.237 245.12C298.614 236.796 302.605 228.811 309.654 224.28L391.619 171.593C398.669 167.061 407.661 166.7 415.09 170.65L539.796 236.948C544.324 239.355 547.92 243.184 550.019 247.833L616.613 395.38C619.186 401.079 619.306 407.564 616.948 413.336L575.017 515.968Z" stroke="url(#paint19_linear_58327_796)" stroke-width="4"/>
<path opacity="0.304348" d="M591.508 510.427C588.345 519.448 579.852 525.556 570.207 525.746L459.412 527.926C453.113 528.05 447.029 525.62 442.568 521.199L328.571 408.231C324.927 404.619 322.6 399.908 321.96 394.846L304.582 257.365C303.537 249.097 307.105 240.931 313.899 236.045L392.358 179.621C399.152 174.735 408.1 173.899 415.722 177.438L542.448 236.282C547.114 238.448 550.922 242.095 553.266 246.642L626.582 388.865C629.451 394.431 629.906 400.909 627.84 406.8L591.508 510.427Z" stroke="url(#paint20_linear_58327_796)" stroke-width="4"/>
<path opacity="0.318841" d="M607.464 504.607C604.77 513.749 596.634 520.27 587.04 520.978L477.554 529.052C471.261 529.516 465.045 527.412 460.349 523.228L341.911 417.695C338.068 414.271 335.49 409.673 334.591 404.635L310.507 269.732C309.045 261.54 312.182 253.217 318.703 247.991L393.488 188.047C400.008 182.82 408.886 181.513 416.676 184.632L544.981 235.998C549.772 237.916 553.781 241.367 556.366 245.8L636.028 382.414C639.186 387.83 639.974 394.285 638.207 400.281L607.464 504.607Z" stroke="url(#paint21_linear_58327_796)" stroke-width="4"/>
<path opacity="0.333333" d="M622.875 498.539C620.654 507.778 612.896 514.691 603.382 515.912L495.519 529.751C489.448 530.53 483.318 528.891 478.47 525.21L478.004 524.848L355.594 426.899C351.563 423.673 348.741 419.2 347.583 414.199L317.017 282.187C315.143 274.094 317.843 265.635 324.072 260.084L395.029 196.844C401.258 191.293 410.038 189.519 417.974 192.21L547.417 236.098C552.321 237.761 556.52 241.006 559.34 245.312L644.958 376.052C648.398 381.305 649.517 387.72 648.054 393.806L622.875 498.539Z" stroke="url(#paint22_linear_58327_796)" stroke-width="4"/>
<path opacity="0.347826" d="M637.732 492.258C635.987 501.569 628.627 508.854 619.221 510.581L513.288 530.036C507.064 531.179 500.639 529.746 495.512 526.072L369.606 435.825C365.395 432.807 362.335 428.472 360.919 423.52L324.108 294.699C321.829 286.724 324.086 278.152 330.006 272.292L396.993 205.987C402.914 200.126 411.574 197.892 419.631 200.148L549.776 236.585C554.779 237.985 559.159 241.015 562.208 245.183L653.382 369.808C657.095 374.883 658.542 381.242 657.387 387.403L637.732 492.258Z" stroke="url(#paint23_linear_58327_796)" stroke-width="4"/>
<path opacity="0.362319" d="M652.03 485.796C650.762 495.154 643.818 502.788 634.547 505.015L530.84 529.924C524.678 531.404 518.176 530.314 512.854 526.911L383.926 444.457C379.547 441.657 376.255 437.471 374.585 432.582L331.779 307.233C329.103 299.396 330.911 290.734 336.508 284.581L399.397 215.446C404.994 209.293 413.509 206.607 421.663 208.423L552.08 237.459C557.168 238.591 561.717 241.395 564.988 245.413L661.31 363.711C665.286 368.594 667.06 374.882 666.217 381.102L652.03 485.796Z" stroke="url(#paint24_linear_58327_796)" stroke-width="4"/>
<path opacity="0.376812" d="M665.765 479.185C664.974 488.568 658.463 496.526 649.356 499.242L548.155 529.428C542.074 531.242 535.512 530.501 530.01 527.379L398.538 452.781C394.002 450.207 390.485 446.183 388.563 441.368L340.026 319.756C336.961 312.076 338.318 303.348 343.576 296.921L402.255 225.196C407.513 218.768 415.857 215.639 424.083 217.01L554.351 238.72C559.51 239.579 564.217 242.148 567.704 246.005L668.756 357.785C672.985 362.464 675.082 368.663 674.554 374.927L665.765 479.185Z" stroke="url(#paint25_linear_58327_796)" stroke-width="4"/>
<path opacity="0.391304" d="M678.933 472.462C678.618 481.843 672.557 490.1 663.64 493.295L565.216 528.567C559.234 530.71 552.631 530.321 546.963 527.49L413.421 460.782C408.739 458.444 405.005 454.593 402.834 449.864L348.841 332.237C345.397 324.733 346.301 315.961 351.207 309.278L405.575 235.207C410.481 228.524 418.63 224.963 426.903 225.886L556.608 240.366C561.823 240.948 566.677 243.273 570.37 246.958L675.732 352.058C680.204 356.519 682.618 362.614 682.407 368.908L678.933 472.462Z" stroke="url(#paint26_linear_58327_796)" stroke-width="4"/>
<path opacity="0.405797" d="M691.534 465.657C691.693 475.012 686.096 483.544 677.397 487.205L582.004 527.357C576.139 529.825 569.516 529.79 563.697 527.258L428.556 468.448C423.741 466.353 419.798 462.686 417.382 458.055L358.217 344.641C354.405 337.333 354.854 328.542 359.394 321.622L409.369 245.451C413.909 238.531 421.839 234.549 430.135 235.024L558.873 242.395C564.13 242.696 569.118 244.769 573.01 248.272L682.254 346.554C686.957 350.785 689.684 356.759 689.792 363.067L691.534 465.657Z" stroke="url(#paint27_linear_58327_796)" stroke-width="4"/>
<path opacity="0.42029" d="M703.573 458.805C704.202 468.11 699.081 476.889 690.626 481.002L598.506 525.816C592.776 528.604 586.15 528.923 580.196 526.698L443.923 475.769C438.986 473.923 434.842 470.451 432.186 465.93L368.145 356.94C363.975 349.845 363.971 341.059 368.133 333.923L413.643 255.899C417.806 248.763 425.495 244.373 433.788 244.399L561.166 244.803C566.45 244.82 571.56 246.634 575.643 249.944L688.339 341.295C693.262 345.286 696.296 351.125 696.722 357.431L703.573 458.805Z" stroke="url(#paint28_linear_58327_796)" stroke-width="4"/>
<path opacity="0.434783" d="M715.05 451.936C716.144 461.167 711.511 470.167 703.324 474.717L614.705 523.965C609.127 527.065 602.517 527.74 596.445 525.829L459.5 482.734C454.453 481.146 450.119 477.876 447.226 473.477L378.61 369.104C374.096 362.238 373.64 353.479 377.414 346.148L418.402 266.522C422.176 259.191 429.603 254.408 437.868 253.987L563.507 247.586C568.803 247.316 574.022 248.866 578.287 251.974L694.005 336.306C699.135 340.045 702.469 345.734 703.214 352.023L715.05 451.936Z" stroke="url(#paint29_linear_58327_796)" stroke-width="4"/>
<path opacity="0.449275" d="M725.973 445.084C727.524 454.216 723.39 463.408 715.495 468.377L630.588 521.823C625.18 525.227 618.606 526.256 612.432 524.666L475.267 489.332C470.124 488.007 465.607 484.952 462.485 480.685L389.602 381.102C384.758 374.483 383.853 365.776 387.229 358.27L423.653 277.292C427.029 269.786 434.172 264.626 442.383 263.761L565.916 250.738C571.209 250.18 576.525 251.457 580.961 254.354L699.27 331.608C704.595 335.085 708.222 340.61 709.285 346.865L725.973 445.084Z" stroke="url(#paint30_linear_58327_796)" stroke-width="4"/>
<path opacity="0.463768" d="M736.348 438.279C738.35 447.289 734.722 456.644 727.143 462.014L646.142 519.408C640.92 523.108 634.401 524.491 628.141 523.226L491.2 495.557C485.973 494.501 481.286 491.669 477.938 487.546L401.105 392.907C395.944 386.549 394.593 377.917 397.563 370.259L429.395 288.179C432.365 280.521 439.204 274.999 447.337 273.693L568.412 254.251C573.687 253.404 579.085 254.405 583.683 257.082L704.155 327.219C709.661 330.425 713.571 335.77 714.951 341.978L736.348 438.279Z" stroke="url(#paint31_linear_58327_796)" stroke-width="4"/>
<path opacity="0.478261" d="M746.185 431.551C748.628 440.417 745.513 449.907 738.271 455.658L661.357 516.743C656.338 520.729 649.892 522.463 643.564 521.528L507.28 501.402C501.982 500.62 497.133 498.021 493.567 494.051L413.103 404.491C407.639 398.41 405.85 389.876 408.406 382.089L435.631 299.153C438.187 291.366 444.703 285.502 452.734 283.761L571.013 258.12C576.255 256.984 581.722 257.702 586.473 260.151L708.68 323.16C714.355 326.086 718.54 331.238 720.234 337.382L746.185 431.551Z" stroke="url(#paint32_linear_58327_796)" stroke-width="4"/>
<path opacity="0.492754" d="M755.493 424.931C758.367 433.63 755.77 443.224 748.887 449.335L676.223 513.849C671.423 518.11 665.07 520.19 658.69 519.59L523.483 506.863C518.128 506.359 513.128 503.999 509.35 500.195L425.576 415.829C419.827 410.039 417.605 401.625 419.742 393.732L442.358 310.187C444.495 302.293 450.669 296.106 458.572 293.937L573.739 262.335C578.933 260.91 584.455 261.341 589.347 263.555L712.869 319.449C718.697 322.086 723.149 327.032 725.153 333.098L755.493 424.931Z" stroke="url(#paint33_linear_58327_796)" stroke-width="4"/>
<path opacity="0.507246" d="M764.287 418.446C767.581 426.957 765.504 436.625 758.999 443.074L690.731 510.746C686.167 515.271 679.923 517.694 673.509 517.431L539.786 511.933C534.388 511.711 529.247 509.6 525.264 505.97L438.508 426.896C432.489 421.41 429.843 413.139 431.556 405.162L449.575 321.253C451.288 313.275 457.103 306.785 464.856 304.197L576.605 266.887C581.736 265.174 587.3 265.315 592.322 267.286L716.743 316.1C722.711 318.442 727.419 323.169 729.73 329.14L764.287 418.446Z" stroke="url(#paint34_linear_58327_796)" stroke-width="4"/>
<path opacity="0.521739" d="M772.58 412.125C776.28 420.425 774.725 430.139 768.615 436.902L704.874 507.456C700.559 512.233 694.445 514.994 688.013 515.069L556.168 516.612C550.74 516.675 545.47 514.82 541.29 511.374L451.875 437.668C445.603 432.499 442.544 424.394 443.829 416.357L457.276 332.322C458.562 324.285 464.002 317.513 471.581 314.514L579.631 271.765C584.682 269.766 590.273 269.614 595.415 271.334L720.326 313.13C726.419 315.169 731.372 319.664 733.985 325.527L772.58 412.125Z" stroke="url(#paint35_linear_58327_796)" stroke-width="4"/>
<path opacity="0.536232" d="M780.388 405.993C784.48 414.064 783.447 423.794 777.749 430.846L718.647 504.002C714.595 509.017 708.628 512.109 702.197 512.525L572.605 520.897C567.162 521.249 561.775 519.656 557.405 516.404L465.658 448.125C459.151 443.282 455.687 435.364 456.544 427.291L465.456 343.369C466.313 335.296 471.364 328.262 478.746 324.865L582.831 276.959C587.788 274.677 593.392 274.228 598.642 275.692L723.644 310.551C729.847 312.281 735.034 316.533 737.944 322.273L780.388 405.993Z" stroke="url(#paint36_linear_58327_796)" stroke-width="4"/>
<path opacity="0.550725" d="M787.727 400.077C792.196 407.898 791.681 417.613 786.411 424.929L732.044 500.404C728.269 505.644 722.466 509.06 716.054 509.816L589.074 524.788C583.63 525.43 578.138 524.107 573.587 521.057L479.832 458.244C473.108 453.739 469.253 446.028 469.681 437.942L474.106 354.366C474.534 346.28 479.182 339.01 486.345 335.225L586.22 282.455C591.068 279.894 596.67 279.147 602.016 280.349L726.72 308.376C733.017 309.791 738.427 313.788 741.628 319.391L787.727 400.077Z" stroke="url(#paint37_linear_58327_796)" stroke-width="4"/>
<path opacity="0.565217" d="M794.617 394.4C799.446 401.954 799.446 411.625 794.617 419.178L745.062 496.685C741.577 502.136 735.957 505.867 729.581 506.964L605.554 528.286C600.123 529.219 594.538 528.172 589.814 525.335L494.375 468.008C487.453 463.85 483.218 456.366 483.218 448.291V365.288C483.218 357.213 487.453 349.729 494.375 345.571L589.814 288.244C594.538 285.407 600.123 284.359 605.554 285.293L729.581 306.615C735.957 307.711 741.577 311.442 745.062 316.893L794.617 394.4Z" stroke="url(#paint38_linear_58327_796)" stroke-width="4"/>
<path opacity="0.57971" d="M801.075 388.984C806.248 396.252 806.757 405.851 802.38 413.615L757.7 492.867C754.517 498.513 749.096 502.551 742.774 503.986L622.022 531.392C616.619 532.618 610.953 531.852 606.066 529.236L509.261 477.398C502.16 473.595 497.56 466.358 497.134 458.318L492.781 376.11C492.355 368.069 496.166 360.396 502.827 355.88L593.627 294.309C598.211 291.201 603.765 289.854 609.268 290.514L732.253 305.277C738.692 306.05 744.509 309.504 748.271 314.79L801.075 388.984Z" stroke="url(#paint39_linear_58327_796)" stroke-width="4"/>
<path opacity="0.594203" d="M807.124 383.851C812.622 390.818 813.631 400.316 809.716 408.263L769.955 488.972C767.085 494.796 761.881 499.131 755.63 500.903L638.456 534.111C633.095 535.63 627.362 535.151 622.32 532.763L524.464 486.399C517.203 482.959 512.254 475.987 511.406 468.004L502.784 386.808C501.937 378.825 505.313 370.987 511.693 366.127L597.672 300.639C602.102 297.265 607.609 295.615 613.172 295.998L734.761 304.368C741.248 304.814 747.248 307.983 751.279 313.09L807.124 383.851Z" stroke="url(#paint40_linear_58327_796)" stroke-width="4"/>
<path opacity="0.608696" d="M812.784 379.021C818.589 385.672 820.088 395.041 816.644 403.142L781.829 485.02C779.283 491.007 774.312 495.626 768.15 497.732L654.834 536.447C649.531 538.259 643.742 538.071 638.556 535.918L539.959 494.997C532.558 491.925 527.275 485.235 526.011 477.333L513.214 397.359C511.95 389.458 514.885 381.479 520.965 376.293L601.961 307.217C606.221 303.584 611.668 301.634 617.277 301.735L737.134 303.895C743.651 304.012 749.822 306.886 754.112 311.801L812.784 379.021Z" stroke="url(#paint41_linear_58327_796)" stroke-width="4"/>
<path opacity="0.623188" d="M818.079 374.513C824.171 380.834 826.149 390.047 823.181 398.274L793.324 481.034C791.111 487.166 786.388 492.06 780.333 494.495L671.135 538.406C665.904 540.509 660.073 540.617 654.753 538.708L555.718 503.179C548.197 500.48 542.598 494.09 540.923 486.291L524.055 407.742C522.381 399.944 524.87 391.851 530.632 386.358L606.505 314.029C610.581 310.143 615.952 307.894 621.595 307.71L739.396 303.862C745.929 303.649 752.255 306.218 756.795 310.929L818.079 374.513Z" stroke="url(#paint42_linear_58327_796)" stroke-width="4"/>
<path opacity="0.637681" d="M823.031 370.343C829.389 376.321 831.834 385.352 829.347 393.675L804.441 477.033C802.571 483.292 798.111 488.448 792.18 491.208L687.338 539.993C682.194 542.387 676.335 542.795 670.891 541.137L571.715 510.935C564.093 508.614 558.196 502.537 556.119 494.864L535.294 417.935C533.217 410.263 535.254 402.081 540.682 396.299L611.315 321.06C615.193 316.929 620.472 314.383 626.136 313.91L741.576 304.272C748.107 303.727 754.573 305.984 759.355 310.479L823.031 370.343Z" stroke="url(#paint43_linear_58327_796)" stroke-width="4"/>
<path opacity="0.652174" d="M827.664 366.526C834.268 372.149 837.165 380.974 835.162 389.365L815.186 473.04C813.666 479.408 809.485 484.812 803.695 487.891L703.423 541.219C698.381 543.901 692.509 544.61 686.951 543.21L587.921 518.254C580.219 516.314 574.042 510.565 571.572 503.039L546.913 427.919C544.443 420.394 546.026 412.149 551.104 406.098L616.402 328.293C620.067 323.926 625.239 321.083 630.91 320.319L743.7 305.124C750.212 304.247 756.804 306.186 761.815 310.453L827.664 366.526Z" stroke="url(#paint44_linear_58327_796)" stroke-width="4"/>
<path opacity="0.666667" d="M832.005 363.075C838.833 368.335 842.166 376.929 840.647 385.36L825.564 469.074C824.401 475.531 820.512 481.169 814.881 484.561L719.369 542.092C714.444 545.059 708.572 546.073 702.912 544.936L604.307 525.131C596.546 523.572 590.11 518.166 587.256 510.808L558.895 437.676C556.042 430.318 557.169 422.036 561.883 415.737L621.773 335.712C625.211 331.118 630.26 327.983 635.925 326.926L745.796 306.42C752.273 305.211 758.975 306.825 764.205 310.853L832.005 363.075Z" stroke="url(#paint45_linear_58327_796)" stroke-width="4"/>
<path opacity="0.681159" d="M836.077 360.004C843.107 364.89 846.859 373.231 845.824 381.672L835.58 465.154C834.779 471.681 831.195 477.538 825.74 481.235L735.156 542.622C730.364 545.869 724.507 547.191 718.756 546.323L620.846 531.559C613.046 530.383 606.369 525.329 603.144 518.159L571.22 447.187C567.996 440.018 568.669 431.725 573.005 425.2L627.435 343.3C630.632 338.489 635.543 335.065 641.188 333.713L747.888 308.156C754.314 306.617 761.11 307.9 766.546 311.679L836.077 360.004Z" stroke="url(#paint46_linear_58327_796)" stroke-width="4"/>
<path opacity="0.695652" d="M839.907 357.323C847.118 361.829 851.27 369.895 850.715 378.318L845.242 461.3C844.808 467.878 841.543 473.938 836.28 477.932L750.767 542.82C746.123 546.343 740.295 547.974 734.465 547.382L637.509 537.534C629.689 536.74 622.794 532.05 619.21 525.087L583.872 456.439C580.288 449.476 580.508 441.199 584.455 434.47L633.395 351.039C636.338 346.023 641.097 342.315 646.707 340.667L750.004 310.329C756.362 308.462 763.235 309.409 768.866 312.928L839.907 357.323Z" stroke="url(#paint47_linear_58327_796)" stroke-width="4"/>
<path opacity="0.710145" d="M843.521 355.039C850.89 359.159 855.423 366.931 855.343 375.308L854.559 457.531C854.496 464.139 851.56 470.386 846.506 474.667L766.184 542.698C761.703 546.493 755.919 548.435 750.022 548.122L654.268 543.054C646.449 542.64 639.355 538.323 635.426 531.587L596.829 465.415C592.9 458.679 592.67 450.44 596.218 443.531L639.66 358.914C642.335 353.703 646.926 349.715 652.487 347.772L752.17 312.934C758.443 310.742 765.376 311.35 771.19 314.6L843.521 355.039Z" stroke="url(#paint48_linear_58327_796)" stroke-width="4"/>
<path opacity="0.724638" d="M846.945 353.163C854.449 356.891 859.343 364.35 859.732 372.652L863.54 453.862C863.85 460.48 861.255 466.897 856.425 471.456L781.391 542.27C777.088 546.331 771.364 548.582 765.412 548.555L765.412 548.555L671.094 548.117C663.296 548.081 656.027 544.146 651.767 537.653L610.073 474.103C605.813 467.61 605.137 459.436 608.276 452.369L646.235 366.906L646.235 366.905C648.631 361.512 653.036 357.252 658.534 355.013L754.411 315.965C760.582 313.451 767.56 313.715 773.542 316.687L846.945 353.163Z" stroke="url(#paint49_linear_58327_796)" stroke-width="4"/>
<path opacity="0.73913" d="M850.206 351.696C857.823 355.031 863.055 362.159 863.905 370.36L872.194 450.313C872.879 456.921 870.635 463.49 866.045 468.315L796.369 541.55C792.259 545.87 786.61 548.432 780.616 548.693L687.96 552.727C680.202 553.065 672.779 549.517 668.204 543.284L623.58 482.49C619.005 476.257 617.89 468.173 620.613 460.974L653.121 374.996C655.224 369.434 659.431 364.907 664.851 362.373L756.75 319.413C762.804 316.583 769.809 316.5 775.946 319.187L850.206 351.696Z" stroke="url(#paint50_linear_58327_796)" stroke-width="4"/>
<path opacity="0.753623" d="M853.33 350.645C861.038 353.584 866.587 360.367 867.888 368.441L880.534 446.899C881.594 453.475 879.711 460.177 875.375 465.256L811.104 540.554C807.203 545.125 801.644 547.995 795.622 548.548L704.837 556.884C697.138 557.591 689.583 554.437 684.709 548.479L637.33 490.567C632.457 484.609 630.91 476.639 633.21 469.331L660.323 383.168C662.122 377.452 666.114 372.667 671.442 369.84L759.214 323.268C765.135 320.127 772.149 319.697 778.427 322.09L853.33 350.645Z" stroke="url(#paint51_linear_58327_796)" stroke-width="4"/>
<path opacity="0.768116" d="M856.344 350.013C864.12 352.554 869.964 358.978 871.705 366.899L888.571 443.634C890.004 450.158 888.49 456.975 884.424 462.295L825.582 539.295C821.904 544.109 816.451 547.286 810.412 548.134L721.699 560.594C714.077 561.664 706.412 558.907 701.257 553.24L651.302 498.323C646.147 492.656 644.178 484.823 646.05 477.432L667.842 391.404C669.325 385.548 673.087 380.513 678.308 377.395L761.824 327.52C767.595 324.074 774.602 323.295 781.007 325.388L856.344 350.013Z" stroke="url(#paint52_linear_58327_796)" stroke-width="4"/>
<path opacity="0.782609" d="M859.274 349.798C867.098 351.944 873.211 357.995 875.379 365.739L896.317 440.537C898.122 446.987 896.984 453.897 893.202 459.445L839.791 537.792C836.35 542.839 831.019 546.32 824.978 547.466L738.518 563.861C730.992 565.288 723.24 562.932 717.822 557.568L665.473 505.752C660.055 500.389 657.674 492.716 659.116 485.266L675.679 399.686C676.836 393.706 680.354 388.43 685.452 385.024L764.605 332.156C770.21 328.412 777.191 327.286 783.708 329.073L859.274 349.798Z" stroke="url(#paint53_linear_58327_796)" stroke-width="4"/>
<path opacity="0.797101" d="M862.145 350.001C869.994 351.753 876.355 357.421 878.935 364.965L903.786 437.616C905.96 443.972 905.204 450.956 901.718 456.718L853.715 536.061C850.527 541.331 845.333 545.114 839.303 546.559L755.268 566.695C747.856 568.471 740.04 566.515 734.376 561.468L679.821 512.846C674.157 507.798 671.376 500.308 672.385 492.826L683.833 407.997C684.654 401.909 687.912 396.402 692.874 392.712L767.575 337.164C773 333.13 779.938 331.656 786.552 333.132L862.145 350.001Z" stroke="url(#paint54_linear_58327_796)" stroke-width="4"/>
<path opacity="0.811594" d="M864.985 350.621C872.839 351.982 879.42 357.257 882.398 364.578L910.993 434.887C913.531 441.128 913.163 448.165 909.986 454.125L867.347 534.12C864.424 539.603 859.384 543.683 853.379 545.428L771.924 569.103C764.642 571.219 756.782 569.666 750.893 564.945L694.324 519.602C688.434 514.881 685.265 507.595 685.842 500.105L692.302 416.318C692.778 410.14 695.763 404.413 700.573 400.443L770.759 342.528C775.988 338.213 782.865 336.394 789.561 337.554L864.985 350.621Z" stroke="url(#paint55_linear_58327_796)" stroke-width="4"/>
<path opacity="0.826087" d="M867.819 351.651C875.656 352.625 882.435 357.501 885.792 364.577L917.951 432.36C920.847 438.466 920.872 445.536 918.016 451.678L880.674 531.986C878.031 537.67 873.161 542.044 867.193 544.091L788.461 571.097C781.326 573.544 773.445 572.39 767.35 568.007L708.959 526.014C702.863 521.631 699.319 514.568 699.466 507.096L701.085 424.633C701.207 418.383 703.904 412.447 708.549 408.203L774.173 348.233C779.192 343.647 785.992 341.485 792.754 342.325L867.819 351.651Z" stroke="url(#paint56_linear_58327_796)" stroke-width="4"/>
<path opacity="0.84058" d="M870.671 353.089C878.471 353.682 885.424 358.151 889.143 364.963L924.676 430.048C927.924 435.998 928.342 443.078 925.818 449.385L893.687 529.681C891.338 535.553 886.652 540.213 880.737 542.561L804.853 572.687C797.882 575.454 790.003 574.7 783.721 570.662L723.703 532.082C717.422 528.045 713.52 521.226 713.239 513.797L710.178 432.926C709.939 426.622 712.334 420.49 716.798 415.976L777.837 354.263C782.631 349.415 789.337 346.913 796.149 347.43L870.671 353.089Z" stroke="url(#paint57_linear_58327_796)" stroke-width="4"/>
<path opacity="0.855072" d="M873.566 354.926C881.31 355.144 888.411 359.202 892.473 365.731L931.183 427.959C934.774 433.732 935.59 440.802 933.408 447.256L906.38 527.221C904.336 533.268 899.852 538.209 894.003 540.858L821.081 573.888C814.288 576.965 806.43 576.604 799.983 572.92L738.536 537.805C732.089 534.12 727.844 527.564 727.139 520.203L719.578 441.178C718.971 434.84 721.052 428.525 725.32 423.75L781.769 360.598C786.325 355.501 792.918 352.665 799.765 352.857L873.566 354.926Z" stroke="url(#paint58_linear_58327_796)" stroke-width="4"/>
<path opacity="0.869565" d="M876.527 357.155C884.195 357.005 891.42 360.648 895.805 366.878L937.489 426.101C941.414 431.679 942.627 438.716 940.797 445.3L918.744 524.627C917.019 530.834 912.752 536.048 906.984 538.997L837.119 574.713C830.519 578.087 822.704 578.116 816.111 574.791L753.435 543.181C746.842 539.856 742.272 533.581 741.151 526.312L729.278 449.373C728.298 443.02 730.05 436.538 734.109 431.508L785.985 367.222C790.29 361.887 796.754 358.721 803.62 358.586L876.527 357.155Z" stroke="url(#paint59_linear_58327_796)" stroke-width="4"/>
<path opacity="0.884058" d="M879.578 359.768C887.153 359.258 894.477 362.486 899.163 368.399L943.609 424.485C947.858 429.847 949.468 436.828 947.997 443.522L930.776 521.92C929.381 528.271 925.345 533.751 919.671 536.997L852.949 575.178C846.555 578.838 838.804 579.251 832.086 576.291L768.378 548.215C761.661 545.254 756.785 539.276 755.253 532.124L739.273 457.496C737.914 451.15 739.328 444.516 743.164 439.239L790.499 374.112C794.541 368.552 800.859 365.065 807.729 364.603L879.578 359.768Z" stroke="url(#paint60_linear_58327_796)" stroke-width="4"/>
<path opacity="0.898551" d="M882.74 362.751C890.204 361.892 897.602 364.703 902.568 370.285L949.56 423.114C954.122 428.242 956.126 435.146 955.023 441.93L942.47 519.117C941.415 525.598 937.627 531.334 932.062 534.876L868.551 575.301C862.375 579.232 854.707 580.022 847.886 577.43L783.345 552.907C776.524 550.315 771.36 544.65 769.428 537.638L749.556 465.532C747.815 459.213 748.878 452.442 752.476 446.927L795.326 381.252C799.092 375.48 805.249 371.677 812.105 370.887L882.74 362.751Z" stroke="url(#paint61_linear_58327_796)" stroke-width="4"/>
<path opacity="0.913043" d="M886.035 366.095C893.371 364.895 900.821 367.291 906.043 372.529L955.359 421.995C960.219 426.871 962.616 433.676 961.886 440.53L953.822 516.239C953.119 522.833 949.593 528.816 944.15 532.651L883.904 575.097C877.959 579.286 870.394 580.445 863.491 578.225L798.313 557.263C791.41 555.043 785.978 549.703 783.655 542.856L760.12 473.465C757.994 467.195 758.695 460.303 762.042 454.56L800.476 388.619C803.956 382.648 809.935 378.538 816.763 377.421L886.035 366.095Z" stroke="url(#paint62_linear_58327_796)" stroke-width="4"/>
<path opacity="0.927536" d="M889.484 369.785C896.676 368.256 904.152 370.239 909.608 375.122L961.022 421.134C966.169 425.739 968.952 432.421 968.6 439.326L964.832 513.308C964.491 519.996 961.242 526.217 955.936 530.341L898.993 574.588C893.289 579.02 885.845 580.539 878.88 578.691L813.264 561.289C806.3 559.441 800.619 554.442 797.918 547.781L770.956 481.28C768.443 475.082 768.772 468.087 771.856 462.126L805.962 396.19C809.146 390.037 814.932 385.628 821.716 384.186L889.484 369.785Z" stroke="url(#paint63_linear_58327_796)" stroke-width="4"/>
<path opacity="0.942029" d="M893.104 373.807C900.137 371.961 907.618 373.535 913.285 378.053L966.567 420.533C971.985 424.851 975.149 431.389 975.18 438.322L975.498 510.342C975.528 517.108 972.57 523.555 967.412 527.963L913.801 573.792C908.349 578.452 901.043 580.321 894.038 578.848L828.177 564.991C821.172 563.517 815.265 558.868 812.199 552.415L782.054 488.965C779.154 482.861 779.102 475.781 781.909 469.613L811.794 403.947C814.671 397.625 820.249 392.927 826.972 391.163L893.104 373.807Z" stroke="url(#paint64_linear_58327_796)" stroke-width="4"/>
<path opacity="0.956522" d="M896.917 378.147C903.776 375.997 911.238 377.166 917.09 381.31L972.011 420.194C977.683 424.21 981.222 430.58 981.638 437.521L985.821 507.364C986.23 514.187 983.577 520.848 978.583 525.536L928.314 572.728C923.123 577.602 915.974 579.81 908.95 578.709L843.032 568.375C836.008 567.274 829.898 562.987 826.482 556.764L793.407 496.506C790.121 490.519 789.677 483.373 792.196 477.009L817.979 411.864C820.541 405.39 825.897 400.414 832.544 398.33L896.917 378.147Z" stroke="url(#paint65_linear_58327_796)" stroke-width="4"/>
<path opacity="0.971014" d="M900.937 382.789C907.609 380.347 915.029 381.119 921.042 384.881L977.369 420.119C983.279 423.816 987.185 429.999 987.987 436.926L995.803 504.391C996.597 511.252 994.263 518.114 989.445 523.077L942.519 571.419C937.596 576.491 930.619 579.027 923.595 578.296L857.813 571.452C850.79 570.722 844.498 566.806 840.748 560.832L805.001 503.889C801.331 498.042 800.488 490.85 802.707 484.302L824.523 419.92C826.763 413.309 831.882 408.066 838.44 405.665L900.937 382.789Z" stroke="url(#paint66_linear_58327_796)" stroke-width="4"/>
<path opacity="0.985507" d="M905.182 387.714C911.654 384.994 919.011 385.376 925.16 388.751L982.66 420.309C988.79 423.673 993.052 429.646 994.242 436.538L1005.45 501.443C1006.63 508.323 1004.63 515.373 1000 520.606L956.403 569.888C951.755 575.141 944.967 577.99 937.966 577.627L872.5 574.231C865.499 573.868 859.049 570.332 854.982 564.626L816.827 511.104C812.775 505.421 811.528 498.202 813.435 491.482L831.432 428.092C833.343 421.361 838.213 415.862 844.665 413.15L905.182 387.714Z" stroke="url(#paint67_linear_58327_796)" stroke-width="4"/>
<path d="M909.665 392.905C915.925 389.921 923.198 389.921 929.458 392.905L987.898 420.763C994.229 423.781 998.837 429.522 1000.41 436.357L1014.75 498.541C1016.34 505.418 1014.68 512.643 1010.25 518.139L969.956 568.153C965.59 573.573 959.004 576.724 952.045 576.724H887.078C880.119 576.724 873.533 573.573 869.167 568.153L828.872 518.139C824.444 512.643 822.784 505.418 824.37 498.541L838.71 436.357C840.286 429.522 844.894 423.781 851.225 420.763L909.665 392.905Z" stroke="url(#paint68_linear_58327_796)" stroke-width="4"/>
<defs>
<linearGradient id="paint0_linear_58327_796" x1="169.515" y1="536.399" x2="382.084" y2="54.0528" gradientUnits="userSpaceOnUse">
<stop stop-color="#615FFF"/>
<stop offset="1" stop-color="#615FFF"/>
</linearGradient>
<linearGradient id="paint1_linear_58327_796" x1="192.215" y1="542.076" x2="377.714" y2="53.8692" gradientUnits="userSpaceOnUse">
<stop stop-color="#615FFF"/>
<stop offset="1" stop-color="#615FFF"/>
</linearGradient>
<linearGradient id="paint2_linear_58327_796" x1="214.944" y1="547.026" x2="373.368" y2="54.4384" gradientUnits="userSpaceOnUse">
<stop stop-color="#615FFF"/>
<stop offset="1" stop-color="#615FFF"/>
</linearGradient>
<linearGradient id="paint3_linear_58327_796" x1="237.662" y1="551.255" x2="369.082" y2="55.7467" gradientUnits="userSpaceOnUse">
<stop stop-color="#615FFF"/>
<stop offset="1" stop-color="#615FFF"/>
</linearGradient>
<linearGradient id="paint4_linear_58327_796" x1="260.327" y1="554.769" x2="364.89" y2="57.7797" gradientUnits="userSpaceOnUse">
<stop stop-color="#615FFF"/>
<stop offset="1" stop-color="#615FFF"/>
</linearGradient>
<linearGradient id="paint5_linear_58327_796" x1="282.901" y1="557.578" x2="360.826" y2="60.5217" gradientUnits="userSpaceOnUse">
<stop stop-color="#615FFF"/>
<stop offset="1" stop-color="#615FFF"/>
</linearGradient>
<linearGradient id="paint6_linear_58327_796" x1="305.347" y1="559.694" x2="356.921" y2="63.9566" gradientUnits="userSpaceOnUse">
<stop stop-color="#615FFF"/>
<stop offset="1" stop-color="#615FFF"/>
</linearGradient>
<linearGradient id="paint7_linear_58327_796" x1="327.627" y1="561.132" x2="353.205" y2="68.0673" gradientUnits="userSpaceOnUse">
<stop stop-color="#615FFF"/>
<stop offset="1" stop-color="#615FFF"/>
</linearGradient>
<linearGradient id="paint8_linear_58327_796" x1="349.706" y1="561.905" x2="349.706" y2="72.8362" gradientUnits="userSpaceOnUse">
<stop stop-color="#615FFF"/>
<stop offset="1" stop-color="#615FFF"/>
</linearGradient>
<linearGradient id="paint9_linear_58327_796" x1="371.547" y1="562.033" x2="346.45" y2="78.2455" gradientUnits="userSpaceOnUse">
<stop stop-color="#615FFF"/>
<stop offset="1" stop-color="#615FFF"/>
</linearGradient>
<linearGradient id="paint10_linear_58327_796" x1="393.118" y1="561.534" x2="343.467" y2="84.2767" gradientUnits="userSpaceOnUse">
<stop stop-color="#615FFF"/>
<stop offset="1" stop-color="#615FFF"/>
</linearGradient>
<linearGradient id="paint11_linear_58327_796" x1="414.387" y1="560.429" x2="340.779" y2="90.9107" gradientUnits="userSpaceOnUse">
<stop stop-color="#615FFF"/>
<stop offset="1" stop-color="#615FFF"/>
</linearGradient>
<linearGradient id="paint12_linear_58327_796" x1="435.323" y1="558.741" x2="338.412" y2="98.1285" gradientUnits="userSpaceOnUse">
<stop stop-color="#615FFF"/>
<stop offset="1" stop-color="#615FFF"/>
</linearGradient>
<linearGradient id="paint13_linear_58327_796" x1="455.897" y1="556.494" x2="336.391" y2="105.91" gradientUnits="userSpaceOnUse">
<stop stop-color="#615FFF"/>
<stop offset="1" stop-color="#615FFF"/>
</linearGradient>
<linearGradient id="paint14_linear_58327_796" x1="476.081" y1="553.713" x2="334.738" y2="114.234" gradientUnits="userSpaceOnUse">
<stop stop-color="#615FFF"/>
<stop offset="1" stop-color="#615FFF"/>
</linearGradient>
<linearGradient id="paint15_linear_58327_796" x1="495.85" y1="550.425" x2="333.477" y2="123.081" gradientUnits="userSpaceOnUse">
<stop stop-color="#615FFF"/>
<stop offset="1" stop-color="#615FFF"/>
</linearGradient>
<linearGradient id="paint16_linear_58327_796" x1="515.179" y1="546.658" x2="332.629" y2="132.428" gradientUnits="userSpaceOnUse">
<stop stop-color="#615FFF"/>
<stop offset="1" stop-color="#615FFF"/>
</linearGradient>
<linearGradient id="paint17_linear_58327_796" x1="534.048" y1="542.441" x2="332.216" y2="142.252" gradientUnits="userSpaceOnUse">
<stop stop-color="#615FFF"/>
<stop offset="1" stop-color="#615FFF"/>
</linearGradient>
<linearGradient id="paint18_linear_58327_796" x1="552.434" y1="537.803" x2="332.259" y2="152.53" gradientUnits="userSpaceOnUse">
<stop stop-color="#615FFF"/>
<stop offset="1" stop-color="#615FFF"/>
</linearGradient>
<linearGradient id="paint19_linear_58327_796" x1="570.32" y1="532.777" x2="332.78" y2="163.238" gradientUnits="userSpaceOnUse">
<stop stop-color="#615FFF"/>
<stop offset="1" stop-color="#615FFF"/>
</linearGradient>
<linearGradient id="paint20_linear_58327_796" x1="587.689" y1="527.393" x2="333.797" y2="174.349" gradientUnits="userSpaceOnUse">
<stop stop-color="#615FFF"/>
<stop offset="1" stop-color="#615FFF"/>
</linearGradient>
<linearGradient id="paint21_linear_58327_796" x1="604.527" y1="521.684" x2="335.329" y2="185.836" gradientUnits="userSpaceOnUse">
<stop stop-color="#615FFF"/>
<stop offset="1" stop-color="#615FFF"/>
</linearGradient>
<linearGradient id="paint22_linear_58327_796" x1="620.82" y1="515.682" x2="337.396" y2="197.672" gradientUnits="userSpaceOnUse">
<stop stop-color="#615FFF"/>
<stop offset="1" stop-color="#615FFF"/>
</linearGradient>
<linearGradient id="paint23_linear_58327_796" x1="636.559" y1="509.42" x2="340.013" y2="209.827" gradientUnits="userSpaceOnUse">
<stop stop-color="#615FFF"/>
<stop offset="1" stop-color="#615FFF"/>
</linearGradient>
<linearGradient id="paint24_linear_58327_796" x1="651.735" y1="502.933" x2="343.197" y2="222.269" gradientUnits="userSpaceOnUse">
<stop stop-color="#615FFF"/>
<stop offset="1" stop-color="#615FFF"/>
</linearGradient>
<linearGradient id="paint25_linear_58327_796" x1="666.342" y1="496.253" x2="346.963" y2="234.966" gradientUnits="userSpaceOnUse">
<stop stop-color="#615FFF"/>
<stop offset="1" stop-color="#615FFF"/>
</linearGradient>
<linearGradient id="paint26_linear_58327_796" x1="680.374" y1="489.414" x2="351.321" y2="247.886" gradientUnits="userSpaceOnUse">
<stop stop-color="#615FFF"/>
<stop offset="1" stop-color="#615FFF"/>
</linearGradient>
<linearGradient id="paint27_linear_58327_796" x1="693.829" y1="482.45" x2="356.284" y2="260.993" gradientUnits="userSpaceOnUse">
<stop stop-color="#615FFF"/>
<stop offset="1" stop-color="#615FFF"/>
</linearGradient>
<linearGradient id="paint28_linear_58327_796" x1="706.707" y1="475.394" x2="361.861" y2="274.251" gradientUnits="userSpaceOnUse">
<stop stop-color="#615FFF"/>
<stop offset="1" stop-color="#615FFF"/>
</linearGradient>
<linearGradient id="paint29_linear_58327_796" x1="719.008" y1="468.279" x2="368.057" y2="287.623" gradientUnits="userSpaceOnUse">
<stop stop-color="#615FFF"/>
<stop offset="1" stop-color="#615FFF"/>
</linearGradient>
<linearGradient id="paint30_linear_58327_796" x1="730.736" y1="461.138" x2="374.879" y2="301.072" gradientUnits="userSpaceOnUse">
<stop stop-color="#615FFF"/>
<stop offset="1" stop-color="#615FFF"/>
</linearGradient>
<linearGradient id="paint31_linear_58327_796" x1="741.897" y1="454.004" x2="382.327" y2="314.559" gradientUnits="userSpaceOnUse">
<stop stop-color="#615FFF"/>
<stop offset="1" stop-color="#615FFF"/>
</linearGradient>
<linearGradient id="paint32_linear_58327_796" x1="752.496" y1="446.907" x2="390.4" y2="328.046" gradientUnits="userSpaceOnUse">
<stop stop-color="#615FFF"/>
<stop offset="1" stop-color="#615FFF"/>
</linearGradient>
<linearGradient id="paint33_linear_58327_796" x1="762.543" y1="439.879" x2="399.096" y2="341.492" gradientUnits="userSpaceOnUse">
<stop stop-color="#615FFF"/>
<stop offset="1" stop-color="#615FFF"/>
</linearGradient>
<linearGradient id="paint34_linear_58327_796" x1="772.048" y1="432.949" x2="408.407" y2="354.861" gradientUnits="userSpaceOnUse">
<stop stop-color="#615FFF"/>
<stop offset="1" stop-color="#615FFF"/>
</linearGradient>
<linearGradient id="paint35_linear_58327_796" x1="781.023" y1="426.148" x2="418.325" y2="368.112" gradientUnits="userSpaceOnUse">
<stop stop-color="#615FFF"/>
<stop offset="1" stop-color="#615FFF"/>
</linearGradient>
<linearGradient id="paint36_linear_58327_796" x1="789.482" y1="419.503" x2="428.838" y2="381.208" gradientUnits="userSpaceOnUse">
<stop stop-color="#615FFF"/>
<stop offset="1" stop-color="#615FFF"/>
</linearGradient>
<linearGradient id="paint37_linear_58327_796" x1="797.439" y1="413.041" x2="439.93" y2="394.112" gradientUnits="userSpaceOnUse">
<stop stop-color="#615FFF"/>
<stop offset="1" stop-color="#615FFF"/>
</linearGradient>
<linearGradient id="paint38_linear_58327_796" x1="804.912" y1="406.789" x2="451.584" y2="406.789" gradientUnits="userSpaceOnUse">
<stop stop-color="#615FFF"/>
<stop offset="1" stop-color="#615FFF"/>
</linearGradient>
<linearGradient id="paint39_linear_58327_796" x1="811.918" y1="400.771" x2="463.78" y2="419.204" gradientUnits="userSpaceOnUse">
<stop stop-color="#615FFF"/>
<stop offset="1" stop-color="#615FFF"/>
</linearGradient>
<linearGradient id="paint40_linear_58327_796" x1="818.476" y1="395.011" x2="476.494" y2="431.324" gradientUnits="userSpaceOnUse">
<stop stop-color="#615FFF"/>
<stop offset="1" stop-color="#615FFF"/>
</linearGradient>
<linearGradient id="paint41_linear_58327_796" x1="824.608" y1="389.531" x2="489.703" y2="443.12" gradientUnits="userSpaceOnUse">
<stop stop-color="#615FFF"/>
<stop offset="1" stop-color="#615FFF"/>
</linearGradient>
<linearGradient id="paint42_linear_58327_796" x1="830.334" y1="384.352" x2="503.378" y2="454.563" gradientUnits="userSpaceOnUse">
<stop stop-color="#615FFF"/>
<stop offset="1" stop-color="#615FFF"/>
</linearGradient>
<linearGradient id="paint43_linear_58327_796" x1="835.676" y1="379.493" x2="517.49" y2="465.627" gradientUnits="userSpaceOnUse">
<stop stop-color="#615FFF"/>
<stop offset="1" stop-color="#615FFF"/>
</linearGradient>
<linearGradient id="paint44_linear_58327_796" x1="840.66" y1="374.972" x2="532.009" y2="476.289" gradientUnits="userSpaceOnUse">
<stop stop-color="#615FFF"/>
<stop offset="1" stop-color="#615FFF"/>
</linearGradient>
<linearGradient id="paint45_linear_58327_796" x1="845.308" y1="370.805" x2="546.904" y2="486.529" gradientUnits="userSpaceOnUse">
<stop stop-color="#615FFF"/>
<stop offset="1" stop-color="#615FFF"/>
</linearGradient>
<linearGradient id="paint46_linear_58327_796" x1="849.645" y1="367.007" x2="562.139" y2="496.328" gradientUnits="userSpaceOnUse">
<stop stop-color="#615FFF"/>
<stop offset="1" stop-color="#615FFF"/>
</linearGradient>
<linearGradient id="paint47_linear_58327_796" x1="853.697" y1="363.59" x2="577.683" y2="505.672" gradientUnits="userSpaceOnUse">
<stop stop-color="#615FFF"/>
<stop offset="1" stop-color="#615FFF"/>
</linearGradient>
<linearGradient id="paint48_linear_58327_796" x1="857.491" y1="360.568" x2="593.5" y2="514.55" gradientUnits="userSpaceOnUse">
<stop stop-color="#615FFF"/>
<stop offset="1" stop-color="#615FFF"/>
</linearGradient>
<linearGradient id="paint49_linear_58327_796" x1="861.053" y1="357.948" x2="609.557" y2="522.951" gradientUnits="userSpaceOnUse">
<stop stop-color="#615FFF"/>
<stop offset="1" stop-color="#615FFF"/>
</linearGradient>
<linearGradient id="paint50_linear_58327_796" x1="864.409" y1="355.74" x2="625.818" y2="530.869" gradientUnits="userSpaceOnUse">
<stop stop-color="#615FFF"/>
<stop offset="1" stop-color="#615FFF"/>
</linearGradient>
<linearGradient id="paint51_linear_58327_796" x1="867.588" y1="353.95" x2="642.25" y2="538.3" gradientUnits="userSpaceOnUse">
<stop stop-color="#615FFF"/>
<stop offset="1" stop-color="#615FFF"/>
</linearGradient>
<linearGradient id="paint52_linear_58327_796" x1="870.614" y1="352.582" x2="658.819" y2="545.244" gradientUnits="userSpaceOnUse">
<stop stop-color="#615FFF"/>
<stop offset="1" stop-color="#615FFF"/>
</linearGradient>
<linearGradient id="paint53_linear_58327_796" x1="873.518" y1="351.64" x2="675.492" y2="551.701" gradientUnits="userSpaceOnUse">
<stop stop-color="#615FFF"/>
<stop offset="1" stop-color="#615FFF"/>
</linearGradient>
<linearGradient id="paint54_linear_58327_796" x1="876.324" y1="351.125" x2="692.238" y2="557.675" gradientUnits="userSpaceOnUse">
<stop stop-color="#615FFF"/>
<stop offset="1" stop-color="#615FFF"/>
</linearGradient>
<linearGradient id="paint55_linear_58327_796" x1="879.06" y1="351.038" x2="709.025" y2="563.171" gradientUnits="userSpaceOnUse">
<stop stop-color="#615FFF"/>
<stop offset="1" stop-color="#615FFF"/>
</linearGradient>
<linearGradient id="paint56_linear_58327_796" x1="881.752" y1="351.376" x2="725.825" y2="568.197" gradientUnits="userSpaceOnUse">
<stop stop-color="#615FFF"/>
<stop offset="1" stop-color="#615FFF"/>
</linearGradient>
<linearGradient id="paint57_linear_58327_796" x1="884.427" y1="352.136" x2="742.609" y2="572.762" gradientUnits="userSpaceOnUse">
<stop stop-color="#615FFF"/>
<stop offset="1" stop-color="#615FFF"/>
</linearGradient>
<linearGradient id="paint58_linear_58327_796" x1="887.111" y1="353.313" x2="759.35" y2="576.876" gradientUnits="userSpaceOnUse">
<stop stop-color="#615FFF"/>
<stop offset="1" stop-color="#615FFF"/>
</linearGradient>
<linearGradient id="paint59_linear_58327_796" x1="889.829" y1="354.901" x2="776.023" y2="580.553" gradientUnits="userSpaceOnUse">
<stop stop-color="#615FFF"/>
<stop offset="1" stop-color="#615FFF"/>
</linearGradient>
<linearGradient id="paint60_linear_58327_796" x1="892.604" y1="356.892" x2="792.605" y2="583.804" gradientUnits="userSpaceOnUse">
<stop stop-color="#615FFF"/>
<stop offset="1" stop-color="#615FFF"/>
</linearGradient>
<linearGradient id="paint61_linear_58327_796" x1="895.462" y1="359.278" x2="809.072" y2="586.644" gradientUnits="userSpaceOnUse">
<stop stop-color="#615FFF"/>
<stop offset="1" stop-color="#615FFF"/>
</linearGradient>
<linearGradient id="paint62_linear_58327_796" x1="898.424" y1="362.047" x2="825.404" y2="589.089" gradientUnits="userSpaceOnUse">
<stop stop-color="#615FFF"/>
<stop offset="1" stop-color="#615FFF"/>
</linearGradient>
<linearGradient id="paint63_linear_58327_796" x1="901.513" y1="365.187" x2="841.581" y2="591.153" gradientUnits="userSpaceOnUse">
<stop stop-color="#615FFF"/>
<stop offset="1" stop-color="#615FFF"/>
</linearGradient>
<linearGradient id="paint64_linear_58327_796" x1="904.75" y1="368.687" x2="857.586" y2="592.855" gradientUnits="userSpaceOnUse">
<stop stop-color="#615FFF"/>
<stop offset="1" stop-color="#615FFF"/>
</linearGradient>
<linearGradient id="paint65_linear_58327_796" x1="908.155" y1="372.531" x2="873.402" y2="594.21" gradientUnits="userSpaceOnUse">
<stop stop-color="#615FFF"/>
<stop offset="1" stop-color="#615FFF"/>
</linearGradient>
<linearGradient id="paint66_linear_58327_796" x1="911.747" y1="376.704" x2="889.012" y2="595.235" gradientUnits="userSpaceOnUse">
<stop stop-color="#615FFF"/>
<stop offset="1" stop-color="#615FFF"/>
</linearGradient>
<linearGradient id="paint67_linear_58327_796" x1="915.544" y1="381.19" x2="904.403" y2="595.949" gradientUnits="userSpaceOnUse">
<stop stop-color="#615FFF"/>
<stop offset="1" stop-color="#615FFF"/>
</linearGradient>
<linearGradient id="paint68_linear_58327_796" x1="919.561" y1="385.973" x2="919.561" y2="596.37" gradientUnits="userSpaceOnUse">
<stop stop-color="#615FFF"/>
<stop offset="1" stop-color="#615FFF"/>
</linearGradient>
</defs>
</svg>
